<?xml version="1.0" encoding="UTF-8"?>
<svg id="Layer_1" data-name="Layer 1" xmlns="http://www.w3.org/2000/svg" viewBox="0 0 1143 744.08">
  <defs>
    <style>
      .cls-1 {
        fill: #fff;
      }
    </style>
  </defs>
  <polygon class="cls-1" points="732.83 468.39 572.62 219.67 419.07 468.4 411.4 463.78 343.76 354.13 571.53 0 803.87 350.76 732.83 468.39"/>
  <path class="cls-1" d="M573.71,345.14l235.95,375.74c-5.47,5.52-9.98,21.79-17.39,23.2l-115.45-1.12-104.2-164.7-104.23,164.67-116.55.03c-4.53-5.95-17.19-21.06-14.58-27.87l236.44-369.95Z"/>
  <path class="cls-1" d="M161.36,186.01c74.11,121.77,154.78,239.48,230.53,360.26l-83.71,130.58L0,186.01h161.36Z"/>
  <polygon class="cls-1" points="1143 186.01 837.06 676.85 753.51 546.11 985 186.01 1143 186.01"/>
</svg>